<svg width="128" height="80" viewBox="0 0 128 80" fill="none" xmlns="http://www.w3.org/2000/svg">
<path d="M104 16C105.105 16 106 16.8954 106 18V62C106 63.1046 105.105 64 104 64H24C22.8954 64 22 63.1046 22 62V18C22 16.8954 22.8954 16 24 16H104ZM29 20C28.4477 20 28 20.4477 28 21V59C28 59.5523 28.4477 60 29 60C29.5523 60 30 59.5523 30 59V21C30 20.4477 29.5523 20 29 20ZM36.7773 20C36.2253 20.0002 35.7773 20.4479 35.7773 21V59C35.7773 59.5521 36.2253 59.9998 36.7773 60C37.3296 60 37.7773 59.5523 37.7773 59V21C37.7773 20.4477 37.3296 20 36.7773 20ZM44.5557 20C44.0034 20 43.5557 20.4477 43.5557 21V59C43.5557 59.5523 44.0034 60 44.5557 60C45.1079 59.9999 45.5557 59.5522 45.5557 59V21C45.5557 20.4478 45.1079 20.0001 44.5557 20ZM52.333 20C51.7809 20.0002 51.333 20.4478 51.333 21V59C51.333 59.5522 51.7809 59.9998 52.333 60C52.8853 60 53.333 59.5523 53.333 59V21C53.333 20.4477 52.8853 20 52.333 20ZM60.1113 20C59.559 20 59.1113 20.4477 59.1113 21V59C59.1113 59.5523 59.559 60 60.1113 60C60.6635 59.9999 61.1113 59.5522 61.1113 59V21C61.1113 20.4478 60.6635 20.0001 60.1113 20ZM67.8887 20C67.3365 20.0001 66.8887 20.4478 66.8887 21V59C66.8887 59.5522 67.3365 59.9999 67.8887 60C68.441 60 68.8887 59.5523 68.8887 59V21C68.8887 20.4477 68.441 20 67.8887 20ZM75.667 20C75.1147 20 74.667 20.4477 74.667 21V59C74.667 59.5523 75.1147 60 75.667 60C76.2191 59.9998 76.667 59.5522 76.667 59V21C76.667 20.4478 76.2191 20.0002 75.667 20ZM83.4443 20C82.8921 20.0001 82.4443 20.4478 82.4443 21V59C82.4443 59.5522 82.8921 59.9999 83.4443 60C83.9966 60 84.4443 59.5523 84.4443 59V21C84.4443 20.4477 83.9966 20 83.4443 20ZM91.2227 20C90.6704 20 90.2227 20.4477 90.2227 21V59C90.2227 59.5523 90.6704 60 91.2227 60C91.7747 59.9998 92.2227 59.5521 92.2227 59V21C92.2227 20.4479 91.7747 20.0002 91.2227 20ZM99 20C98.4477 20 98 20.4477 98 21V59C98 59.5523 98.4477 60 99 60C99.5523 60 100 59.5523 100 59V21C100 20.4477 99.5523 20 99 20Z" fill="currentColor"/>
</svg>
