<svg width="128" height="80" viewBox="0 0 128 80" fill="none" xmlns="http://www.w3.org/2000/svg">
<path d="M23 22C23 18.6863 25.6863 16 29 16V16C32.3137 16 35 18.6863 35 22V64H23V22Z" fill="currentColor"/>
<path d="M37 22C37 18.6863 39.6863 16 43 16V16C46.3137 16 49 18.6863 49 22V64H37V22Z" fill="currentColor"/>
<path d="M51 22C51 18.6863 53.6863 16 57 16V16C60.3137 16 63 18.6863 63 22V64H51V22Z" fill="currentColor"/>
<path d="M65 22C65 18.6863 67.6863 16 71 16V16C74.3137 16 77 18.6863 77 22V64H65V22Z" fill="currentColor"/>
<path d="M79 22C79 18.6863 81.6863 16 85 16V16C88.3137 16 91 18.6863 91 22V64H79V22Z" fill="currentColor"/>
<path d="M93 22C93 18.6863 95.6863 16 99 16V16C102.314 16 105 18.6863 105 22V64H93V22Z" fill="currentColor"/>
</svg>
