<svg width="300" height="48" viewBox="0 0 300 48" fill="none" xmlns="http://www.w3.org/2000/svg">
<path d="M1.29289 33.2929C0.902369 33.6834 0.902369 34.3166 1.29289 34.7071L7.65685 41.0711C8.04738 41.4616 8.68054 41.4616 9.07107 41.0711C9.46159 40.6805 9.46159 40.0474 9.07107 39.6569L3.41421 34L9.07107 28.3431C9.46159 27.9526 9.46159 27.3195 9.07107 26.9289C8.68054 26.5384 8.04738 26.5384 7.65685 26.9289L1.29289 33.2929ZM60.5 34V35H61.5V34H60.5ZM95 34H94V35H95V34ZM235 34V35H236V34H235ZM248 34H247V35H248V34ZM299.707 34.7071C300.098 34.3166 300.098 33.6834 299.707 33.2929L293.343 26.9289C292.953 26.5384 292.319 26.5384 291.929 26.9289C291.538 27.3195 291.538 27.9526 291.929 28.3431L297.586 34L291.929 39.6569C291.538 40.0474 291.538 40.6805 291.929 41.0711C292.319 41.4616 292.953 41.4616 293.343 41.0711L299.707 34.7071ZM2 34V35H60.5V34V33H2V34ZM60.5 34H61.5V14H60.5H59.5V34H60.5ZM61.5 13V14H94V13V12H61.5V13ZM95 14H94V34H95H96V14H95ZM95 34V35H235V34V33H95V34ZM248 34V35H299V34V33H248V34ZM235 34H236V21H235H234V34H235ZM237 19V20H246V19V18H237V19ZM248 21H247V34H248H249V21H248ZM235 21H236C236 20.4477 236.448 20 237 20V19V18C235.343 18 234 19.3431 234 21H235ZM94 13V14H95H96C96 12.8954 95.1046 12 94 12V13ZM246 19V20C246.552 20 247 20.4477 247 21H248H249C249 19.3431 247.657 18 246 18V19ZM60.5 14H61.5V14V13V12C60.3954 12 59.5 12.8954 59.5 14H60.5Z" fill="currentColor"/>
<path d="M78 17L78 33" stroke="currentColor" stroke-width="2" stroke-linecap="round"/>
<path d="M91 19H82" stroke="currentColor" stroke-linecap="round"/>
<path d="M91 23H82" stroke="currentColor" stroke-linecap="round"/>
<path d="M91 27H82" stroke="currentColor" stroke-linecap="round"/>
<path d="M91 31H82" stroke="currentColor" stroke-linecap="round"/>
<path d="M74 19H65" stroke="currentColor" stroke-linecap="round"/>
<path d="M74 23H65" stroke="currentColor" stroke-linecap="round"/>
<path d="M74 27H65" stroke="currentColor" stroke-linecap="round"/>
<path d="M74 31H65" stroke="currentColor" stroke-linecap="round"/>
<path d="M241 28H238" stroke="currentColor" stroke-linecap="round"/>
</svg>
