<svg width="24" height="24" viewBox="0 0 24 24" fill="none" xmlns="http://www.w3.org/2000/svg">
<path d="M8.11719 20.6328C6.90625 20.6328 6.14062 19.9141 6.08594 18.7109L5.55469 7.44531H4.6875C4.3125 7.44531 4 7.14844 4 6.75781C4 6.375 4.3125 6.07812 4.6875 6.07812H8.15625V4.90625C8.15625 3.71094 8.92188 3 10.2109 3H13.1797C14.4766 3 15.2344 3.71094 15.2344 4.90625V6.07812H18.7109C19.1016 6.07812 19.4062 6.375 19.4062 6.75781C19.4062 7.14844 19.1016 7.44531 18.7109 7.44531H17.8516L17.3203 18.7031C17.2656 19.9062 16.4922 20.6328 15.2969 20.6328H8.11719ZM9.59375 4.97656V6.07812H13.7969V4.97656C13.7969 4.57031 13.5156 4.3125 13.0781 4.3125H10.3125C9.875 4.3125 9.59375 4.57031 9.59375 4.97656ZM8.26562 19.25H15.125C15.5703 19.25 15.8828 18.9375 15.8984 18.4766L16.4062 7.44531H6.96875L7.5 18.4766C7.52344 18.9375 7.83594 19.25 8.26562 19.25ZM9.39844 17.9922C9.08594 17.9922 8.86719 17.7891 8.85938 17.4766L8.625 9.28906C8.61719 8.98438 8.82812 8.77344 9.15625 8.77344C9.46875 8.77344 9.6875 8.97656 9.69531 9.28906L9.92969 17.4766C9.9375 17.7812 9.72656 17.9922 9.39844 17.9922ZM11.7031 17.9922C11.375 17.9922 11.1562 17.7812 11.1562 17.4766V9.28906C11.1562 8.98438 11.375 8.77344 11.7031 8.77344C12.0312 8.77344 12.25 8.98438 12.25 9.28906V17.4766C12.25 17.7812 12.0312 17.9922 11.7031 17.9922ZM14.0078 17.9922C13.6797 17.9922 13.4609 17.7812 13.4688 17.4766L13.7109 9.28906C13.7188 8.97656 13.9375 8.77344 14.25 8.77344C14.5703 8.77344 14.7891 8.98438 14.7812 9.28906L14.5391 17.4766C14.5312 17.7891 14.3203 17.9922 14.0078 17.9922Z" fill="#FF453A"/>
</svg>
